<svg width="200" height="200" viewBox="0 0 200 200" fill="none" xmlns="http://www.w3.org/2000/svg">
<g filter="url(#filter0_b_1425_2004)">
<path fill-rule="evenodd" clip-rule="evenodd" d="M95.2462 50C96.1318 50 97.0284 50.0312 97.9286 50.0845C109.296 50.7873 121.48 55.7498 134.154 64.8433C144.595 72.3328 150.064 82.8082 150.11 94.761C150.125 99.65 149.238 104.792 147.411 110.07C141.642 126.754 126.702 142.168 111.087 147.551C106.248 149.217 101.478 150.029 96.8318 149.999C87.8587 149.941 79.3467 146.736 71.7166 140.474C61.7439 132.288 54.6283 120.729 52.1884 108.753C50.8913 102.381 50.0149 96.9908 50.0002 92.0577C49.9708 82.8358 52.96 75.1921 61.8523 65.7022C71.6302 55.2543 82.854 49.9853 95.2462 50ZM122.332 79.4292C122.294 79.6143 122.212 79.7875 122.093 79.9339L122.102 79.9283L120.311 82.1783C119.454 81.7988 118.517 81.6389 117.583 81.7132C116.649 81.7874 115.748 82.0935 114.962 82.6035C114.177 83.1135 113.531 83.8115 113.084 84.6339C112.637 85.4564 112.402 86.3773 112.402 87.3133V110.931H109.3C108.538 110.931 108.018 110.481 108.018 109.637V79.6072C108.018 78.9043 108.374 78.2968 109.309 78.2968H112.413V80.066C114.072 78.5538 116.278 77.6288 118.703 77.6288C119.672 77.6281 120.635 77.7849 121.553 78.0931C121.733 78.1519 121.895 78.2535 122.027 78.3892C122.158 78.5248 122.255 78.6903 122.308 78.8715C122.361 79.0527 122.369 79.2441 122.332 79.4292ZM133.456 92.3454L130.504 91.0608C127.658 89.8147 126.653 88.5998 126.653 86.4195C126.653 83.5768 128.731 81.67 131.827 81.67C133.659 81.67 135.158 82.0444 136.995 83.9089L137.094 84.0135L138.672 82.5711C139.589 81.725 139.321 80.9579 138.941 80.4679C137.401 78.6547 134.932 77.6619 131.978 77.6619C126.288 77.6619 122.154 81.369 122.154 86.4801C122.154 91.5031 125.323 93.6044 128.746 95.1276L131.764 96.471C134.799 97.8291 136.244 98.9871 136.244 101.903C136.244 105.878 132.646 106.941 130.522 106.941C128.696 106.941 126.657 106.55 124.158 103.722L124.059 103.608L122.415 105.051C121.568 105.792 121.564 106.431 122.385 107.488C124.645 110.395 127.967 111.002 130.352 111.002C135.509 111.002 140.736 107.838 140.736 101.788C140.738 96.5481 137.827 94.2247 133.456 92.3454ZM104.294 87.194C104.294 82.048 100.116 77.6876 94.9642 77.6876C92.539 77.6876 90.3325 78.6125 88.6734 80.1247V78.3556H85.5721C84.637 78.3556 84.2806 78.963 84.2806 79.6659V109.701C84.2806 110.545 84.795 110.995 85.5575 110.995H88.6606V87.3757C88.6606 85.8848 89.2535 84.455 90.3088 83.4008C91.3642 82.3466 92.7956 81.7544 94.2881 81.7544C95.7806 81.7544 97.212 82.3466 98.2673 83.4008C99.3227 84.455 99.9156 85.8848 99.9156 87.3757V111H102.998C103.855 111 104.296 110.525 104.296 109.71C104.294 109.712 104.294 87.2252 104.294 87.194ZM80.1027 100.162H76.6688L76.6633 100.261C76.6339 100.929 76.2389 106.761 71.0119 106.761C66.3416 106.761 63.9697 102.58 63.9661 94.3348C63.9697 86.091 66.3416 81.9085 71.0119 81.9085C76.3083 81.9085 76.6463 88.097 76.6631 88.4058L76.6633 88.4089L76.6688 88.508H80.1027C80.26 88.5081 80.4158 88.4768 80.5609 88.416C80.7061 88.3551 80.8376 88.266 80.9478 88.1538C81.0513 88.0503 81.1321 87.9263 81.185 87.7897C81.2378 87.6532 81.2615 87.5072 81.2546 87.361C81.1848 85.7442 80.3544 77.6729 70.966 77.6729C63.38 77.6729 59.3693 83.4336 59.3693 94.3275C59.3693 105.242 63.3781 111.017 70.966 111.017C79.9979 111.017 81.1205 103.645 81.2546 101.388C81.2659 101.234 81.2449 101.08 81.1931 100.935C81.1412 100.791 81.0595 100.658 80.9533 100.547C80.8479 100.425 80.7173 100.327 80.5704 100.261C80.4235 100.194 80.2639 100.16 80.1027 100.162Z" fill="white"/>
</g>
<defs>
<filter id="filter0_b_1425_2004" x="-20" y="-20" width="240" height="240" filterUnits="userSpaceOnUse" color-interpolation-filters="sRGB">
<feFlood flood-opacity="0" result="BackgroundImageFix"/>
<feGaussianBlur in="BackgroundImageFix" stdDeviation="10"/>
<feComposite in2="SourceAlpha" operator="in" result="effect1_backgroundBlur_1425_2004"/>
<feBlend mode="normal" in="SourceGraphic" in2="effect1_backgroundBlur_1425_2004" result="shape"/>
</filter>
</defs>
</svg>
