<svg width="200" height="200" viewBox="0 0 200 200" fill="none" xmlns="http://www.w3.org/2000/svg">
<path d="M101.299 66.1179C109.204 65.984 116.843 68.9731 122.557 74.4363L138.505 58.4889C128.443 49.0299 115.108 43.838 101.299 44.0039C90.9903 44.0021 80.8836 46.8664 72.1082 52.2767C63.3328 57.6871 56.2343 65.4305 51.6055 74.6421L70.183 89.0437C72.3195 82.4476 76.4711 76.6877 82.0531 72.575C87.6351 68.4623 94.3665 66.2039 101.299 66.1179Z" fill="#F6F6F6"/>
<path d="M51.6049 74.6426C47.7164 82.3907 45.6914 90.94 45.6914 99.6091C45.6914 108.278 47.7164 116.828 51.6049 124.576L70.1825 110.174C67.8522 103.323 67.8522 95.8947 70.1825 89.0442L51.6049 74.6426Z" fill="white"/>
<path d="M120.126 127.79C115.827 130.55 110.954 132.291 105.88 132.882C100.805 133.472 95.6633 132.895 90.8457 131.196C86.0281 129.497 81.6621 126.72 78.0809 123.077C74.4997 119.434 71.7978 115.021 70.1814 110.175L51.6094 124.576C56.2373 133.786 63.3341 141.529 72.1074 146.939C80.8806 152.349 90.9849 155.214 101.292 155.215C114.828 155.58 127.991 150.76 138.091 141.742L120.126 127.79Z" fill="#F1F1F1"/>
<path d="M153.669 89.5H101.301V111.008H131.227C130.608 114.41 129.305 117.651 127.397 120.536C125.49 123.42 123.017 125.888 120.129 127.789L138.1 141.746C143.573 136.476 147.878 130.115 150.735 123.074C153.591 116.033 154.936 108.471 154.681 100.877C154.681 97.0511 154.344 93.2589 153.669 89.5Z" fill="#E9E9E9"/>
</svg>
