<svg width="200" height="200" viewBox="0 0 200 200" fill="none" xmlns="http://www.w3.org/2000/svg">
<g filter="url(#filter0_b_1425_2018)">
<path fill-rule="evenodd" clip-rule="evenodd" d="M45.9746 93.3153V98.4817L58.2419 98.4763C57.8655 101.326 56.911 103.412 55.4601 104.873C53.671 106.673 50.8783 108.656 45.9746 108.656C38.4146 108.656 32.5019 102.523 32.5019 94.913C32.5019 87.3032 38.4146 81.1704 45.9746 81.1704C50.0546 81.1704 53.0328 82.7846 55.231 84.86L58.8528 81.2143C55.7874 78.266 51.7074 76.0039 45.9801 76.0039C35.6273 76.0039 26.9219 84.4921 26.9219 94.913C26.9219 105.334 35.6273 113.822 45.9801 113.822C51.5655 113.822 55.7819 111.977 59.0819 108.518C62.4746 105.103 63.5274 100.31 63.5274 96.4338C63.5274 95.2808 63.4401 94.2157 63.271 93.3153H45.9746ZM149.451 113.081V77.3932H144.269V113.081H149.451ZM77.7237 113.828C84.4109 113.828 89.86 108.661 89.86 101.65C89.86 94.5893 84.4109 89.4722 77.7237 89.4722C71.0364 89.4722 65.5873 94.5893 65.5873 101.65C65.5873 108.661 71.0364 113.828 77.7237 113.828ZM77.7237 94.2708C81.3891 94.2708 84.5473 97.2686 84.5473 101.65C84.5473 105.982 81.3891 109.029 77.7237 109.029C74.0582 109.029 70.9 105.987 70.9 101.65C70.9 97.2686 74.0582 94.2708 77.7237 94.2708ZM103.908 113.828C110.596 113.828 116.045 108.661 116.045 101.65C116.045 94.5893 110.596 89.4722 103.908 89.4722C97.2212 89.4722 91.7721 94.5948 91.7721 101.65C91.7721 108.661 97.2212 113.828 103.908 113.828ZM103.908 94.2708C107.574 94.2708 110.732 97.2686 110.732 101.65C110.732 105.982 107.574 109.029 103.908 109.029C100.243 109.029 97.0848 105.987 97.0848 101.65C97.0848 97.2686 100.243 94.2708 103.908 94.2708ZM141.135 90.2134V112.071C141.135 121.064 135.866 124.737 129.637 124.737C123.773 124.737 120.244 120.79 118.913 117.561L123.538 115.623C124.362 117.605 126.38 119.944 129.631 119.944C133.618 119.944 136.089 117.468 136.089 112.807V111.055H135.904C134.715 112.532 132.424 113.822 129.533 113.822C123.484 113.822 117.942 108.519 117.942 101.694C117.942 94.8199 123.484 89.4722 129.533 89.4722C132.418 89.4722 134.709 90.7624 135.904 92.1954H136.089V90.2134H141.135ZM136.466 101.694C136.466 97.4059 133.624 94.2708 130.008 94.2708C126.342 94.2708 123.271 97.4059 123.271 101.694C123.271 105.938 126.342 109.029 130.008 109.029C133.624 109.029 136.466 105.938 136.466 101.694ZM169.646 105.657L173.77 108.425C172.439 110.407 169.231 113.822 163.69 113.822C156.817 113.822 151.684 108.474 151.684 101.644C151.684 94.4019 156.86 89.466 163.095 89.466C169.373 89.466 172.444 94.4953 173.448 97.2131L173.999 98.5966L157.826 105.339C159.064 107.782 160.99 109.028 163.69 109.028C166.395 109.028 168.271 107.689 169.646 105.657ZM156.953 101.276L167.764 96.7573C167.17 95.2365 165.38 94.1768 163.275 94.1768C160.575 94.1768 156.817 96.5762 156.953 101.276Z" fill="white"/>
</g>
<defs>
<filter id="filter0_b_1425_2018" x="-20" y="-20" width="240" height="240" filterUnits="userSpaceOnUse" color-interpolation-filters="sRGB">
<feFlood flood-opacity="0" result="BackgroundImageFix"/>
<feGaussianBlur in="BackgroundImageFix" stdDeviation="10"/>
<feComposite in2="SourceAlpha" operator="in" result="effect1_backgroundBlur_1425_2018"/>
<feBlend mode="normal" in="SourceGraphic" in2="effect1_backgroundBlur_1425_2018" result="shape"/>
</filter>
</defs>
</svg>
