<svg width="32" height="32" viewBox="0 0 32 32" fill="none" xmlns="http://www.w3.org/2000/svg">
<path fill-rule="evenodd" clip-rule="evenodd" d="M16 32C24.8366 32 32 24.8366 32 16C32 7.16344 24.8366 0 16 0C7.16344 0 0 7.16344 0 16C0 24.8366 7.16344 32 16 32ZM7.18591 14.8362L13.8832 8.16229C14.0181 8.03327 14.1941 7.95703 14.3817 7.95703H14.6808C15.2204 7.95703 15.5546 8.53762 15.2907 9.00679L9.30888 19.5336C9.08016 19.9383 8.52889 20.0145 8.20048 19.6862L7.18591 18.6775C6.922 18.4135 6.77539 18.0558 6.77539 17.6805V15.8331C6.77539 15.4578 6.922 15.1001 7.18591 14.8362ZM17.8858 8.16229L24.5831 14.8362H24.589C24.8529 15.1001 24.9995 15.4578 24.9995 15.8331V17.6805C24.9995 18.0558 24.8529 18.4135 24.589 18.6775L23.5744 19.6862C23.246 20.0087 22.6947 19.9383 22.466 19.5336L16.4842 9.00679C16.2144 8.53762 16.5545 7.95703 17.0941 7.95703H17.3932C17.575 7.95703 17.7567 8.03327 17.8858 8.16229ZM11.5977 23.0704C11.8616 23.3343 12.2193 23.4809 12.5888 23.4809H19.1806C19.55 23.4809 19.9077 23.3343 20.1717 23.0704L21.7082 21.5398C22.1539 21.1 21.8372 20.3375 21.2097 20.3375H10.5597C9.93215 20.3375 9.62133 21.0941 10.0612 21.5398L11.5977 23.0704Z" fill="white"/>
</svg>
