<svg width="22" height="22" viewBox="0 0 22 22" fill="none" xmlns="http://www.w3.org/2000/svg">
<path d="M9.41019 4.18511L3.37023 10.204C3.13222 10.4419 3 10.7646 3 11.103V12.7691C3 13.1076 3.13222 13.4302 3.37023 13.6682L4.28521 14.5779C4.58139 14.8741 5.07856 14.8053 5.28482 14.4404L10.6795 4.94672C10.9176 4.52361 10.6161 4 10.1295 4H9.85976C9.69053 4 9.53186 4.06876 9.41019 4.18511Z" fill="white"/>
<path d="M19.0612 10.204L13.0212 4.18511C12.9048 4.06876 12.7409 4 12.5769 4H12.3072C11.8206 4 11.5138 4.52361 11.7571 4.94672L17.1518 14.4404C17.3581 14.8053 17.8553 14.8688 18.1515 14.5779L19.0665 13.6682C19.3044 13.4302 19.4367 13.1076 19.4367 12.7691V11.103C19.4367 10.7646 19.3044 10.4419 19.0665 10.204H19.0612Z" fill="white"/>
<path d="M7.34872 17.6307C7.58674 17.8687 7.90934 18.0009 8.24254 18.0009H14.1873C14.5205 18.0009 14.8431 17.8687 15.0812 17.6307L16.4669 16.2503C16.8688 15.8536 16.5832 15.166 16.0173 15.166H6.41258C5.84666 15.166 5.56635 15.8483 5.96302 16.2503L7.34872 17.6307Z" fill="white"/>
</svg>
