<svg width="336" height="241" viewBox="0 0 336 241" fill="none" xmlns="http://www.w3.org/2000/svg">
<g clip-path="url(#clip0_1301_2031)">
<g clip-path="url(#clip1_1301_2031)">
<g clip-path="url(#clip2_1301_2031)">
<path fill-rule="evenodd" clip-rule="evenodd" d="M168.938 224.28C168.938 225.863 169.567 227.381 170.687 228.5C171.806 229.619 173.324 230.248 174.907 230.248H315.686L278.119 267.804C276.998 268.924 276.368 270.444 276.368 272.03C276.368 273.615 276.998 275.135 278.119 276.255C279.24 277.376 280.76 278.006 282.345 278.006C283.93 278.006 285.45 277.376 286.571 276.255L334.321 228.505C334.876 227.951 335.317 227.292 335.618 226.567C335.919 225.842 336.074 225.065 336.074 224.28C336.074 223.494 335.919 222.717 335.618 221.992C335.317 221.267 334.876 220.608 334.321 220.054L310.446 196.179L286.571 172.304C285.45 171.183 283.93 170.553 282.345 170.553C280.76 170.553 279.24 171.183 278.119 172.304C276.998 173.424 276.368 174.945 276.368 176.53C276.368 178.115 276.998 179.635 278.119 180.755L315.686 218.311H174.907C173.324 218.311 171.806 218.94 170.687 220.059C169.567 221.178 168.938 222.696 168.938 224.28ZM336.063 140.717C336.063 142.3 335.435 143.818 334.315 144.938C333.196 146.057 331.678 146.686 330.095 146.686H189.316L226.883 184.241C227.438 184.796 227.878 185.455 228.179 186.18C228.479 186.905 228.633 187.682 228.633 188.467C228.633 189.252 228.479 190.029 228.179 190.754C227.878 191.479 227.438 192.138 226.883 192.693C226.328 193.248 225.669 193.688 224.944 193.988C224.219 194.289 223.442 194.443 222.657 194.443C221.872 194.443 221.095 194.289 220.37 193.988C219.645 193.688 218.986 193.248 218.431 192.693L170.681 144.943C170.125 144.388 169.684 143.73 169.384 143.005C169.083 142.279 168.928 141.502 168.928 140.717C168.928 139.932 169.083 139.155 169.384 138.429C169.684 137.704 170.125 137.046 170.681 136.491L218.431 88.7411C219.552 87.6204 221.072 86.9907 222.657 86.9907C224.242 86.9907 225.762 87.6204 226.883 88.7411C228.004 89.8619 228.633 91.382 228.633 92.967C228.633 94.552 228.004 96.0721 226.883 97.1929L189.316 134.748H330.095C331.678 134.748 333.196 135.377 334.315 136.496C335.435 137.616 336.063 139.134 336.063 140.717Z" fill="url(#paint0_linear_1301_2031)" fill-opacity="0.08"/>
</g>
</g>
</g>
<defs>
<linearGradient id="paint0_linear_1301_2031" x1="162.5" y1="87" x2="341.5" y2="233" gradientUnits="userSpaceOnUse">
<stop stop-color="white"/>
<stop offset="1" stop-color="white" stop-opacity="0.1"/>
</linearGradient>
<clipPath id="clip0_1301_2031">
<rect width="336" height="241" fill="white"/>
</clipPath>
<clipPath id="clip1_1301_2031">
<rect width="194" height="194" fill="white" transform="translate(157 84)"/>
</clipPath>
<clipPath id="clip2_1301_2031">
<rect width="191" height="191" fill="white" transform="translate(157 87)"/>
</clipPath>
</defs>
</svg>
