<svg width="336" height="241" viewBox="0 0 336 241" fill="none" xmlns="http://www.w3.org/2000/svg">
<g clip-path="url(#clip0_1301_2064)">
<g clip-path="url(#clip1_1301_2064)">
<path d="M213.511 92.2095L141.419 164.049C138.578 166.889 137 170.74 137 174.78V194.666C137 198.706 138.578 202.556 141.419 205.397L152.34 216.255C155.875 219.79 161.809 218.97 164.271 214.614L228.661 101.3C231.502 96.2497 227.904 90 222.096 90H218.876C216.857 90 214.963 90.8207 213.511 92.2095Z" fill="url(#paint0_linear_1301_2064)" fill-opacity="0.08"/>
<path d="M328.695 164.049L256.603 92.2095C255.214 90.8207 253.257 90 251.3 90H248.081C242.273 90 238.611 96.2497 241.516 101.3L305.906 214.614C308.368 218.97 314.301 219.728 317.837 216.255L328.758 205.397C331.599 202.556 333.177 198.706 333.177 194.666V174.78C333.177 170.74 331.599 166.889 328.758 164.049H328.695Z" fill="url(#paint1_linear_1301_2064)" fill-opacity="0.08"/>
<path d="M188.896 252.682C191.737 255.522 195.588 257.101 199.565 257.101H270.52C274.497 257.101 278.348 255.522 281.189 252.682L297.728 236.205C302.526 231.471 299.117 223.264 292.362 223.264H177.723C170.968 223.264 167.622 231.408 172.357 236.205L188.896 252.682Z" fill="url(#paint2_linear_1301_2064)" fill-opacity="0.08"/>
</g>
</g>
<defs>
<linearGradient id="paint0_linear_1301_2064" x1="144.675" y1="82.4145" x2="263.923" y2="147.765" gradientUnits="userSpaceOnUse">
<stop stop-color="white"/>
<stop offset="1" stop-color="white" stop-opacity="0.1"/>
</linearGradient>
<linearGradient id="paint1_linear_1301_2064" x1="248.176" y1="82.416" x2="367.43" y2="147.802" gradientUnits="userSpaceOnUse">
<stop stop-color="white"/>
<stop offset="1" stop-color="white" stop-opacity="0.1"/>
</linearGradient>
<linearGradient id="paint2_linear_1301_2064" x1="180.896" y1="221.266" x2="203.767" y2="287.947" gradientUnits="userSpaceOnUse">
<stop stop-color="white"/>
<stop offset="1" stop-color="white" stop-opacity="0.1"/>
</linearGradient>
<clipPath id="clip0_1301_2064">
<rect width="336" height="241" fill="white"/>
</clipPath>
<clipPath id="clip1_1301_2064">
<rect width="199" height="199" fill="white" transform="translate(137 90)"/>
</clipPath>
</defs>
</svg>
