<svg width="336" height="241" viewBox="0 0 336 241" fill="none" xmlns="http://www.w3.org/2000/svg">
<g clip-path="url(#clip0_1495_2000)">
<path d="M283.5 282C272.779 282 262.704 279.964 253.275 275.893C243.846 271.822 235.644 266.301 228.669 259.331C221.694 252.361 216.173 244.159 212.107 234.725C208.041 225.291 206.005 215.216 206 204.5C205.995 193.784 208.031 183.709 212.107 174.275C216.184 164.841 221.704 156.639 228.669 149.669C235.633 142.699 243.835 137.178 253.275 133.107C262.714 129.036 272.789 127 283.5 127C294.21 127 304.285 129.036 313.725 133.107C323.164 137.178 331.367 142.699 338.331 149.669C345.296 156.639 350.819 164.841 354.901 174.275C358.982 183.709 361.015 193.784 361 204.5C360.984 215.216 358.949 225.291 354.893 234.725C350.837 244.159 345.317 252.361 338.331 259.331C331.346 266.301 323.144 271.824 313.725 275.901C304.306 279.977 294.231 282.01 283.5 282ZM283.5 266.5C300.808 266.5 315.469 260.494 327.481 248.481C339.494 236.469 345.5 221.808 345.5 204.5C345.5 203.596 345.469 202.658 345.407 201.687C345.345 200.715 345.311 199.909 345.306 199.269C344.66 203.015 342.917 206.115 340.075 208.569C337.233 211.023 333.875 212.25 330 212.25H314.5C310.237 212.25 306.59 210.734 303.557 207.701C300.524 204.668 299.005 201.018 299 196.75V189H268V173.5C268 169.237 269.519 165.59 272.557 162.557C275.595 159.524 279.243 158.005 283.5 158H291.25C291.25 155.029 292.059 152.415 293.676 150.157C295.293 147.899 297.261 146.057 299.581 144.631C296.998 143.985 294.384 143.469 291.738 143.081C289.093 142.694 286.347 142.5 283.5 142.5C266.192 142.5 251.531 148.506 239.519 160.519C227.506 172.531 221.5 187.192 221.5 204.5H260.25C268.775 204.5 276.073 207.535 282.144 213.606C288.215 219.677 291.25 226.975 291.25 235.5V243.25H268V264.562C270.583 265.208 273.136 265.694 275.657 266.019C278.178 266.345 280.793 266.505 283.5 266.5Z" fill="url(#paint0_linear_1495_2000)" fill-opacity="0.08"/>
</g>
<defs>
<linearGradient id="paint0_linear_1495_2000" x1="218.84" y1="117.848" x2="383.294" y2="242.808" gradientUnits="userSpaceOnUse">
<stop stop-color="white"/>
<stop offset="1" stop-color="white" stop-opacity="0.1"/>
</linearGradient>
<clipPath id="clip0_1495_2000">
<rect width="336" height="241" fill="white"/>
</clipPath>
</defs>
</svg>
