<svg width="336" height="241" viewBox="0 0 336 241" fill="none" xmlns="http://www.w3.org/2000/svg">
<g clip-path="url(#clip0_1495_2028)">
<g clip-path="url(#clip1_1495_2028)">
<path d="M286.5 253L320.52 184.89H297V141L262 209.11H286.5V253ZM290 127C309.25 127 325.7 134 339.35 147.65C353 161.3 360 177.75 360 197C360 216.25 353 232.7 339.35 246.35C325.7 260 309.25 267 290 267C270.75 267 254.3 260 240.65 246.35C227 232.7 220 216.25 220 197C220 177.75 227 161.3 240.65 147.65C254.3 134 270.75 127 290 127Z" fill="url(#paint0_linear_1495_2028)" fill-opacity="0.08"/>
</g>
</g>
<defs>
<linearGradient id="paint0_linear_1495_2028" x1="231.598" y1="118.733" x2="380.136" y2="231.601" gradientUnits="userSpaceOnUse">
<stop stop-color="white"/>
<stop offset="1" stop-color="white" stop-opacity="0.1"/>
</linearGradient>
<clipPath id="clip0_1495_2028">
<rect width="336" height="241" fill="white"/>
</clipPath>
<clipPath id="clip1_1495_2028">
<rect width="141" height="141" fill="white" transform="translate(206 125)"/>
</clipPath>
</defs>
</svg>
