<svg width="336" height="241" viewBox="0 0 336 241" fill="none" xmlns="http://www.w3.org/2000/svg">
<g clip-path="url(#clip0_1301_2040)">
<g clip-path="url(#clip1_1301_2040)">
<path d="M297.162 202.784C307.813 188.25 312.584 170.23 310.519 152.329C308.455 134.428 299.708 117.967 286.028 106.239C272.347 94.5103 254.743 88.3798 236.737 89.0736C218.731 89.7674 201.651 97.2343 188.914 109.981C176.177 122.727 168.722 139.812 168.041 157.819C167.36 175.825 173.504 193.425 185.242 207.097C196.98 220.768 213.447 229.504 231.349 231.556C249.252 233.607 267.268 228.824 281.795 218.162H281.784C282.107 218.602 282.466 219.024 282.862 219.427L325.212 261.777C327.275 263.841 330.073 265.001 332.991 265.002C335.909 265.003 338.708 263.845 340.772 261.783C342.836 259.72 343.996 256.922 343.997 254.004C343.998 251.086 342.84 248.287 340.777 246.223L298.427 203.873C298.034 203.475 297.611 203.118 297.162 202.784ZM300 160.5C300 168.445 298.435 176.312 295.395 183.652C292.354 190.993 287.898 197.662 282.28 203.28C276.662 208.898 269.993 213.354 262.652 216.395C255.312 219.435 247.445 221 239.5 221C231.555 221 223.688 219.435 216.348 216.395C209.008 213.354 202.338 208.898 196.72 203.28C191.102 197.662 186.646 190.993 183.605 183.652C180.565 176.312 179 168.445 179 160.5C179 144.455 185.374 129.066 196.72 117.72C208.066 106.374 223.455 100 239.5 100C255.546 100 270.934 106.374 282.28 117.72C293.626 129.066 300 144.455 300 160.5Z" fill="url(#paint0_linear_1301_2040)" fill-opacity="0.08"/>
</g>
</g>
<defs>
<linearGradient id="paint0_linear_1301_2040" x1="167.999" y1="83.7896" x2="329.526" y2="243.579" gradientUnits="userSpaceOnUse">
<stop stop-color="white"/>
<stop offset="1" stop-color="white" stop-opacity="0.1"/>
</linearGradient>
<clipPath id="clip0_1301_2040">
<rect width="336" height="241" fill="white"/>
</clipPath>
<clipPath id="clip1_1301_2040">
<rect width="176" height="176" fill="white" transform="translate(168 89)"/>
</clipPath>
</defs>
</svg>
