<svg width="336" height="241" viewBox="0 0 336 241" fill="none" xmlns="http://www.w3.org/2000/svg">
<g clip-path="url(#clip0_1446_2094)">
<path d="M229 243.701C230.549 261.204 244.836 273.626 266.586 275.232V288H277.503V275.232C301.263 273.353 316 260.133 316 240.582C316 223.887 306.088 214.227 285.06 208.788L277.503 206.825V166.904C289.247 168.059 297.17 174.401 299.169 183.872H314.556C312.818 167.072 298.437 155.017 277.503 153.684V141H266.586V153.947C246.291 156.362 232.36 169.402 232.36 187.084C232.36 202.351 242.471 213.156 260.212 217.713L266.597 219.414V261.739C254.57 259.954 246.291 253.34 244.292 243.701H229ZM264.493 203.423C253.576 200.661 247.746 194.76 247.746 186.454C247.746 176.542 255.115 169.224 266.586 167.26V203.958L264.493 203.423ZM281.146 223.079C294.616 226.47 300.53 232.098 300.53 241.653C300.53 253.172 291.885 260.847 277.503 262.012V222.165L281.146 223.079Z" fill="url(#paint0_linear_1446_2094)" fill-opacity="0.08"/>
</g>
<defs>
<linearGradient id="paint0_linear_1446_2094" x1="236.207" y1="132.32" x2="357.316" y2="186.784" gradientUnits="userSpaceOnUse">
<stop stop-color="white"/>
<stop offset="1" stop-color="white" stop-opacity="0.1"/>
</linearGradient>
<clipPath id="clip0_1446_2094">
<rect width="336" height="241" fill="white"/>
</clipPath>
</defs>
</svg>
