<svg width="336" height="241" viewBox="0 0 336 241" fill="none" xmlns="http://www.w3.org/2000/svg">
<g clip-path="url(#clip0_1437_2008)">
<g clip-path="url(#clip1_1437_2008)">
<path d="M170.688 143.062C170.688 139.698 172.024 136.47 174.404 134.091C176.783 131.712 180.01 130.375 183.375 130.375H335.625C338.99 130.375 342.217 131.712 344.596 134.091C346.976 136.47 348.312 139.698 348.312 143.062H170.688ZM259.5 244.562C266.23 244.562 272.684 241.889 277.443 237.13C282.202 232.372 284.875 225.917 284.875 219.188C284.875 212.458 282.202 206.003 277.443 201.245C272.684 196.486 266.23 193.813 259.5 193.812C252.77 193.813 246.316 196.486 241.557 201.245C236.798 206.003 234.125 212.458 234.125 219.188C234.125 225.917 236.798 232.372 241.557 237.13C246.316 241.889 252.77 244.562 259.5 244.562Z" fill="url(#paint0_linear_1437_2008)" fill-opacity="0.08"/>
<path d="M158 168.438C158 165.073 159.337 161.845 161.716 159.466C164.095 157.087 167.323 155.75 170.688 155.75H348.312C351.677 155.75 354.905 157.087 357.284 159.466C359.663 161.845 361 165.073 361 168.438V269.938C361 273.302 359.663 276.53 357.284 278.909C354.905 281.288 351.677 282.625 348.312 282.625H170.688C167.323 282.625 164.095 281.288 161.716 278.909C159.337 276.53 158 273.302 158 269.938V168.438ZM196.062 168.438C196.062 175.167 193.389 181.622 188.63 186.38C183.872 191.139 177.417 193.812 170.688 193.812V244.562C177.417 244.562 183.872 247.236 188.63 251.995C193.389 256.753 196.062 263.208 196.062 269.938H322.938C322.938 263.208 325.611 256.753 330.37 251.995C335.128 247.236 341.583 244.562 348.312 244.562V193.812C341.583 193.812 335.128 191.139 330.37 186.38C325.611 181.622 322.938 175.167 322.938 168.438H196.062Z" fill="url(#paint1_linear_1437_2008)" fill-opacity="0.08"/>
</g>
</g>
<defs>
<linearGradient id="paint0_linear_1437_2008" x1="185.402" y1="123.633" x2="309.414" y2="270.214" gradientUnits="userSpaceOnUse">
<stop stop-color="white"/>
<stop offset="1" stop-color="white" stop-opacity="0.1"/>
</linearGradient>
<linearGradient id="paint1_linear_1437_2008" x1="174.817" y1="148.258" x2="311.913" y2="314.936" gradientUnits="userSpaceOnUse">
<stop stop-color="white"/>
<stop offset="1" stop-color="white" stop-opacity="0.1"/>
</linearGradient>
<clipPath id="clip0_1437_2008">
<rect width="336" height="241" fill="white"/>
</clipPath>
<clipPath id="clip1_1437_2008">
<rect width="191" height="191" fill="white" transform="translate(158 128)"/>
</clipPath>
</defs>
</svg>
