<svg width="336" height="241" viewBox="0 0 336 241" fill="none" xmlns="http://www.w3.org/2000/svg">
<g clip-path="url(#clip0_1437_1937)">
<g clip-path="url(#clip1_1437_1937)">
<g clip-path="url(#clip2_1437_1937)">
<g clip-path="url(#clip3_1437_1937)">
<path d="M242.063 162.884C241.182 162.257 240.144 161.884 239.065 161.807C237.986 161.729 236.906 161.951 235.944 162.446C234.982 162.942 234.175 163.693 233.611 164.616C233.047 165.54 232.749 166.601 232.748 167.684V226.641C232.749 227.723 233.047 228.784 233.611 229.708C234.175 230.631 234.982 231.382 235.944 231.878C236.906 232.374 237.986 232.595 239.065 232.518C240.144 232.44 241.182 232.067 242.063 231.44L283.333 201.961C284.097 201.416 284.72 200.696 285.15 199.861C285.58 199.026 285.804 198.101 285.804 197.162C285.804 196.223 285.58 195.298 285.15 194.463C284.72 193.628 284.097 192.908 283.333 192.363L242.063 162.884Z" fill="url(#paint0_linear_1437_1937)" fill-opacity="0.08"/>
<path d="M162 149.997C162 143.742 164.485 137.744 168.907 133.321C173.33 128.899 179.328 126.414 185.583 126.414H327.08C333.334 126.414 339.332 128.899 343.755 133.321C348.178 137.744 350.662 143.742 350.662 149.997V244.328C350.662 250.583 348.178 256.581 343.755 261.004C339.332 265.426 333.334 267.911 327.08 267.911H185.583C179.328 267.911 173.33 265.426 168.907 261.004C164.485 256.581 162 250.583 162 244.328V149.997ZM338.871 149.997C338.871 146.87 337.629 143.87 335.417 141.659C333.206 139.448 330.207 138.205 327.08 138.205H185.583C182.456 138.205 179.456 139.448 177.245 141.659C175.034 143.87 173.791 146.87 173.791 149.997V244.328C173.791 247.455 175.034 250.454 177.245 252.666C179.456 254.877 182.456 256.119 185.583 256.119H327.08C330.207 256.119 333.206 254.877 335.417 252.666C337.629 250.454 338.871 247.455 338.871 244.328V149.997Z" fill="url(#paint1_linear_1437_1937)" fill-opacity="0.08"/>
</g>
</g>
</g>
</g>
<defs>
<linearGradient id="paint0_linear_1437_1937" x1="237.143" y1="157.614" x2="304.169" y2="195.812" gradientUnits="userSpaceOnUse">
<stop stop-color="white"/>
<stop offset="1" stop-color="white" stop-opacity="0.1"/>
</linearGradient>
<linearGradient id="paint1_linear_1437_1937" x1="177.629" y1="118.059" x2="333.44" y2="275.916" gradientUnits="userSpaceOnUse">
<stop stop-color="white"/>
<stop offset="1" stop-color="white" stop-opacity="0.1"/>
</linearGradient>
<clipPath id="clip0_1437_1937">
<rect width="336" height="241" fill="white"/>
</clipPath>
<clipPath id="clip1_1437_1937">
<rect width="199" height="199" fill="white" transform="translate(150 106)"/>
</clipPath>
<clipPath id="clip2_1437_1937">
<rect width="219" height="219" fill="white" transform="translate(162 118)"/>
</clipPath>
<clipPath id="clip3_1437_1937">
<rect width="188.662" height="188.662" fill="white" transform="translate(162 102.831)"/>
</clipPath>
</defs>
</svg>
