<svg width="336" height="241" viewBox="0 0 336 241" fill="none" xmlns="http://www.w3.org/2000/svg">
<g clip-path="url(#clip0_1437_1986)">
<path d="M272.35 231.435L286.65 245.783C288.058 247.196 289.73 248.317 291.571 249.082C293.411 249.846 295.383 250.24 297.375 250.24C299.367 250.24 301.339 249.846 303.179 249.082C305.02 248.317 306.692 247.196 308.1 245.783C309.508 244.37 310.626 242.692 311.388 240.846C312.15 239 312.542 237.021 312.542 235.022C312.542 233.024 312.15 231.045 311.388 229.199C310.626 227.352 309.508 225.675 308.1 224.262M293.799 209.914L311.674 227.848C314.518 230.702 318.376 232.306 322.399 232.306C326.422 232.306 330.28 230.702 333.124 227.848C335.968 224.995 337.566 221.124 337.566 217.088C337.566 213.052 335.968 209.181 333.124 206.327L305.382 178.493C301.36 174.463 295.908 172.2 290.224 172.2C284.54 172.2 279.088 174.463 275.066 178.493L268.774 184.806C265.93 187.66 262.072 189.263 258.049 189.263C254.026 189.263 250.168 187.66 247.324 184.806C244.48 181.952 242.882 178.082 242.882 174.046C242.882 170.01 244.48 166.139 247.324 163.285L267.415 143.127C273.938 136.6 282.444 132.442 291.587 131.312C300.73 130.181 309.988 132.143 317.894 136.886L321.255 138.895C324.299 140.738 327.919 141.378 331.408 140.688L343.849 138.177M343.85 131.003L351 209.914H336.7M275.925 235.022C278.769 237.876 280.367 241.746 280.367 245.782C280.367 249.818 278.769 253.689 275.925 256.543C273.081 259.397 269.223 261 265.2 261C261.177 261 257.319 259.397 254.475 256.543L208 209.914L215.15 138.177H272.35" stroke="url(#paint0_linear_1437_1986)" stroke-opacity="0.08" stroke-width="10" stroke-linecap="round" stroke-linejoin="round"/>
</g>
<defs>
<linearGradient id="paint0_linear_1437_1986" x1="219.846" y1="123.324" x2="360.738" y2="241.086" gradientUnits="userSpaceOnUse">
<stop stop-color="white"/>
<stop offset="1" stop-color="white" stop-opacity="0.1"/>
</linearGradient>
<clipPath id="clip0_1437_1986">
<rect width="336" height="241" fill="white"/>
</clipPath>
</defs>
</svg>
