<svg width="336" height="241" viewBox="0 0 336 241" fill="none" xmlns="http://www.w3.org/2000/svg">
<g clip-path="url(#clip0_1301_2052)">
<g clip-path="url(#clip1_1301_2052)">
<g clip-path="url(#clip2_1301_2052)">
<path d="M137 183.038C136.998 199.762 142.792 215.969 153.395 228.895C163.997 241.821 178.751 250.666 195.14 253.92C196.084 243.568 198.738 233.445 202.994 223.963C190.347 219.686 182.218 209.974 180.312 196.188H173.094V190.032H179.822V183.76C179.812 183.086 179.831 182.435 179.879 181.809H173.094V175.639H180.471C183.72 157.604 197.825 146.91 219.019 146.91C223.582 146.91 227.538 147.358 230.844 148.138V158.731C226.981 157.876 223.032 157.478 219.077 157.546C205.809 157.546 196.872 164.28 194.043 175.639H221.719V181.809H193.133C193.095 182.484 193.08 183.192 193.09 183.934V190.032H221.719V196.203H193.739C195.443 204.902 200.496 211.087 208.249 213.963C215.851 201.361 226.306 190.724 238.77 182.91C251.234 175.095 265.358 170.323 280.003 168.977C276.463 151.426 266.54 135.815 252.158 125.168C237.776 114.521 219.958 109.596 202.156 111.346C184.353 113.097 167.834 121.398 155.796 134.643C143.759 147.888 137.061 165.133 137 183.038ZM368 262.519C368 283.599 359.634 303.815 344.742 318.72C329.851 333.626 309.654 342 288.594 342C267.534 342 247.337 333.626 232.445 318.72C217.553 303.815 209.188 283.599 209.188 262.519C209.188 241.439 217.553 221.223 232.445 206.317C247.337 191.411 267.534 183.038 288.594 183.038C309.654 183.038 329.851 191.411 344.742 206.317C359.634 221.223 368 241.439 368 262.519ZM256.109 281.623C257.106 293.69 266.88 303.083 284.465 304.196V313.098H292.261V304.138C310.438 302.895 321.078 293.444 321.078 279.716C321.078 267.215 312.95 260.785 298.411 257.461L292.261 256.016V231.796C300.057 232.663 305.024 236.81 306.208 242.562H319.894C318.884 230.943 308.647 221.853 292.261 220.856V211.94H284.465V221.03C268.93 222.518 258.362 231.608 258.362 244.469C258.362 255.842 266.216 263.082 279.296 266.045L284.465 267.273V292.996C276.466 291.84 271.182 287.563 269.984 281.623H256.109ZM284.407 254.238C276.726 252.504 272.568 248.978 272.568 243.66C272.568 237.735 277.058 233.27 284.465 231.969V254.224H284.392L284.407 254.238ZM293.387 269.325C302.699 271.421 307.002 274.817 307.002 280.828C307.002 287.678 301.66 292.389 292.275 293.256V269.065L293.387 269.325Z" fill="url(#paint0_linear_1301_2052)" fill-opacity="0.08"/>
</g>
</g>
</g>
<defs>
<linearGradient id="paint0_linear_1301_2052" x1="137" y1="97.4203" x2="368.157" y2="270.334" gradientUnits="userSpaceOnUse">
<stop stop-color="white"/>
<stop offset="1" stop-color="white" stop-opacity="0.1"/>
</linearGradient>
<clipPath id="clip0_1301_2052">
<rect width="336" height="241" fill="white"/>
</clipPath>
<clipPath id="clip1_1301_2052">
<rect width="199" height="199" fill="white" transform="translate(137 111)"/>
</clipPath>
<clipPath id="clip2_1301_2052">
<rect width="199" height="199" fill="white" transform="translate(137 111)"/>
</clipPath>
</defs>
</svg>
