<svg width="336" height="241" viewBox="0 0 336 241" fill="none" xmlns="http://www.w3.org/2000/svg">
<g clip-path="url(#clip0_1437_1994)">
<path d="M232.25 191C240.505 191 248.422 187.734 254.259 181.92C260.096 176.107 263.375 168.222 263.375 160C263.375 151.778 260.096 143.893 254.259 138.08C248.422 132.266 240.505 129 232.25 129C223.995 129 216.078 132.266 210.241 138.08C204.404 143.893 201.125 151.778 201.125 160C201.125 168.222 204.404 176.107 210.241 181.92C216.078 187.734 223.995 191 232.25 191ZM253 160C253 165.481 250.814 170.738 246.922 174.614C243.031 178.489 237.753 180.667 232.25 180.667C226.747 180.667 221.469 178.489 217.578 174.614C213.686 170.738 211.5 165.481 211.5 160C211.5 154.519 213.686 149.262 217.578 145.386C221.469 141.511 226.747 139.333 232.25 139.333C237.753 139.333 243.031 141.511 246.922 145.386C250.814 149.262 253 154.519 253 160ZM294.5 242.667C294.5 253 284.125 253 284.125 253H180.375C180.375 253 170 253 170 242.667C170 232.333 180.375 201.333 232.25 201.333C284.125 201.333 294.5 232.333 294.5 242.667ZM284.125 242.625C284.115 240.083 282.527 232.437 275.493 225.431C268.729 218.693 255.998 211.667 232.25 211.667C208.502 211.667 195.772 218.693 189.007 225.431C181.973 232.437 180.396 240.083 180.375 242.625H284.125Z" fill="url(#paint0_linear_1437_1994)" fill-opacity="0.08"/>
<path fill-rule="evenodd" clip-rule="evenodd" d="M310.062 160C311.438 160 312.758 160.544 313.731 161.513C314.703 162.482 315.25 163.796 315.25 165.167V180.667H330.812C332.188 180.667 333.508 181.211 334.481 182.18C335.453 183.149 336 184.463 336 185.833C336 187.204 335.453 188.518 334.481 189.487C333.508 190.456 332.188 191 330.812 191H315.25V206.5C315.25 207.87 314.703 209.184 313.731 210.153C312.758 211.122 311.438 211.667 310.062 211.667C308.687 211.667 307.367 211.122 306.394 210.153C305.422 209.184 304.875 207.87 304.875 206.5V191H289.312C287.937 191 286.617 190.456 285.644 189.487C284.672 188.518 284.125 187.204 284.125 185.833C284.125 184.463 284.672 183.149 285.644 182.18C286.617 181.211 287.937 180.667 289.312 180.667H304.875V165.167C304.875 163.796 305.422 162.482 306.394 161.513C307.367 160.544 308.687 160 310.062 160Z" fill="url(#paint1_linear_1437_1994)" fill-opacity="0.08"/>
</g>
<defs>
<linearGradient id="paint0_linear_1437_1994" x1="183.751" y1="121.678" x2="320.287" y2="260.565" gradientUnits="userSpaceOnUse">
<stop stop-color="white"/>
<stop offset="1" stop-color="white" stop-opacity="0.1"/>
</linearGradient>
<linearGradient id="paint1_linear_1437_1994" x1="183.751" y1="121.678" x2="320.287" y2="260.565" gradientUnits="userSpaceOnUse">
<stop stop-color="white"/>
<stop offset="1" stop-color="white" stop-opacity="0.1"/>
</linearGradient>
<clipPath id="clip0_1437_1994">
<rect width="336" height="241" fill="white"/>
</clipPath>
</defs>
</svg>
