<svg width="336" height="241" viewBox="0 0 336 241" fill="none" xmlns="http://www.w3.org/2000/svg">
<g clip-path="url(#clip0_1495_1979)">
<path d="M258.5 269C251.733 269 245.958 266.608 241.175 261.825C236.392 257.042 234 251.267 234 244.5C234 237.733 236.392 231.958 241.175 227.175C245.958 222.392 251.733 220 258.5 220C260.6 220 262.642 220.261 264.625 220.784C266.608 221.307 268.475 222.037 270.225 222.975L297 196.2V176.95C291.867 175.433 287.667 172.547 284.4 168.291C281.133 164.035 279.5 159.105 279.5 153.5C279.5 146.733 281.892 140.958 286.675 136.175C291.458 131.392 297.233 129 304 129C310.767 129 316.542 131.392 321.325 136.175C326.108 140.958 328.5 146.733 328.5 153.5C328.5 159.1 326.867 164.03 323.6 168.291C320.333 172.552 316.133 175.438 311 176.95V196.2L337.95 222.975C339.7 222.042 341.539 221.314 343.466 220.791C345.393 220.268 347.405 220.005 349.5 220C356.267 220 362.042 222.392 366.825 227.175C371.608 231.958 374 237.733 374 244.5C374 251.267 371.608 257.042 366.825 261.825C362.042 266.608 356.267 269 349.5 269C342.733 269 336.958 266.608 332.175 261.825C327.392 257.042 325 251.267 325 244.5C325 242.4 325.261 240.358 325.784 238.375C326.307 236.392 327.037 234.525 327.975 232.775L304 208.8L280.025 232.775C280.958 234.525 281.689 236.392 282.216 238.375C282.743 240.358 283.005 242.4 283 244.5C283 251.267 280.608 257.042 275.825 261.825C271.042 266.608 265.267 269 258.5 269ZM349.5 255C352.417 255 354.897 253.98 356.941 251.941C358.985 249.902 360.005 247.421 360 244.5C359.995 241.579 358.976 239.101 356.941 237.066C354.906 235.031 352.426 234.009 349.5 234C346.574 233.991 344.096 235.013 342.066 237.066C340.036 239.119 339.014 241.597 339 244.5C338.986 247.403 340.008 249.883 342.066 251.941C344.124 253.999 346.602 255.019 349.5 255ZM304 164C306.917 164 309.397 162.98 311.441 160.941C313.485 158.902 314.505 156.421 314.5 153.5C314.495 150.579 313.476 148.101 311.441 146.066C309.406 144.031 306.926 143.009 304 143C301.074 142.991 298.596 144.013 296.566 146.066C294.536 148.119 293.514 150.597 293.5 153.5C293.486 156.403 294.508 158.883 296.566 160.941C298.624 162.999 301.102 164.019 304 164ZM258.5 255C261.417 255 263.897 253.98 265.941 251.941C267.985 249.902 269.005 247.421 269 244.5C268.995 241.579 267.976 239.101 265.941 237.066C263.906 235.031 261.426 234.009 258.5 234C255.574 233.991 253.096 235.013 251.066 237.066C249.036 239.119 248.014 241.597 248 244.5C247.986 247.403 249.008 249.883 251.066 251.941C253.124 253.999 255.602 255.019 258.5 255Z" fill="url(#paint0_linear_1495_1979)" fill-opacity="0.08"/>
</g>
<defs>
<linearGradient id="paint0_linear_1495_1979" x1="245.598" y1="120.733" x2="394.136" y2="233.601" gradientUnits="userSpaceOnUse">
<stop stop-color="white"/>
<stop offset="1" stop-color="white" stop-opacity="0.1"/>
</linearGradient>
<clipPath id="clip0_1495_1979">
<rect width="336" height="241" fill="white"/>
</clipPath>
</defs>
</svg>
