<svg width="336" height="241" viewBox="0 0 336 241" fill="none" xmlns="http://www.w3.org/2000/svg">
<g clip-path="url(#clip0_1495_2017)">
<g clip-path="url(#clip1_1495_2017)">
<path d="M259.046 140.801C249.581 143.407 240.181 146.244 230.854 149.307C230.001 149.582 229.244 150.091 228.667 150.777C228.091 151.462 227.719 152.296 227.594 153.183C222.089 194.493 234.809 224.633 249.983 244.489C256.405 252.981 264.066 260.462 272.71 266.679C276.149 269.104 279.19 270.853 281.585 271.976C282.777 272.539 283.748 272.93 284.496 273.148C284.826 273.248 285.161 273.331 285.5 273.397C285.835 273.331 286.167 273.248 286.494 273.148C287.249 272.923 288.223 272.532 289.415 271.976C291.8 270.853 294.851 269.094 298.29 266.679C306.934 260.462 314.595 252.981 321.017 244.489C336.191 224.643 348.911 194.493 343.406 153.183C343.281 152.296 342.909 151.462 342.333 150.777C341.756 150.091 340.999 149.582 340.146 149.307C333.677 147.19 322.756 143.742 311.954 140.811C300.923 137.819 290.777 135.603 285.5 135.603C280.233 135.603 270.077 137.809 259.046 140.801ZM256.403 130.565C267.185 127.633 278.643 125 285.5 125C292.357 125 303.815 127.633 314.597 130.565C325.628 133.546 336.748 137.074 343.287 139.211C346.021 140.113 348.444 141.769 350.279 143.988C352.115 146.206 353.287 148.897 353.661 151.752C359.584 196.242 345.841 229.215 329.165 251.027C322.091 260.356 313.66 268.573 304.153 275.404C300.869 277.774 297.384 279.852 293.738 281.615C290.956 282.927 287.965 284 285.5 284C283.036 284 280.054 282.927 277.262 281.615C273.616 279.852 270.131 277.774 266.847 275.404C257.34 268.573 248.909 260.356 241.835 251.027C225.16 229.215 211.416 196.242 217.339 151.752C217.713 148.897 218.885 146.206 220.721 143.988C222.556 141.769 224.98 140.113 227.713 139.211C237.206 136.1 246.772 133.218 256.403 130.565Z" fill="url(#paint0_linear_1495_2017)" fill-opacity="0.08"/>
<path d="M313.858 176.137C314.321 176.599 314.688 177.147 314.938 177.751C315.189 178.354 315.318 179.001 315.318 179.655C315.318 180.308 315.189 180.956 314.938 181.559C314.688 182.163 314.321 182.711 313.858 183.173L284.046 212.985C283.584 213.448 283.036 213.815 282.432 214.066C281.828 214.316 281.181 214.445 280.528 214.445C279.874 214.445 279.227 214.316 278.623 214.066C278.02 213.815 277.471 213.448 277.01 212.985L262.104 198.079C261.642 197.617 261.275 197.069 261.025 196.465C260.775 195.861 260.646 195.214 260.646 194.561C260.646 193.908 260.775 193.261 261.025 192.657C261.275 192.054 261.642 191.505 262.104 191.043C262.566 190.581 263.114 190.215 263.718 189.965C264.321 189.715 264.968 189.586 265.622 189.586C266.275 189.586 266.922 189.715 267.525 189.965C268.129 190.215 268.677 190.581 269.139 191.043L280.528 202.442L306.822 176.137C307.284 175.674 307.832 175.307 308.436 175.057C309.04 174.806 309.687 174.677 310.34 174.677C310.994 174.677 311.641 174.806 312.245 175.057C312.848 175.307 313.397 175.674 313.858 176.137Z" fill="url(#paint1_linear_1495_2017)" fill-opacity="0.08"/>
</g>
</g>
<defs>
<linearGradient id="paint0_linear_1495_2017" x1="227.463" y1="115.611" x2="388.925" y2="222.963" gradientUnits="userSpaceOnUse">
<stop stop-color="white"/>
<stop offset="1" stop-color="white" stop-opacity="0.1"/>
</linearGradient>
<linearGradient id="paint1_linear_1495_2017" x1="265.175" y1="172.329" x2="308.928" y2="218.034" gradientUnits="userSpaceOnUse">
<stop stop-color="white"/>
<stop offset="1" stop-color="white" stop-opacity="0.1"/>
</linearGradient>
<clipPath id="clip0_1495_2017">
<rect width="336" height="241" fill="white"/>
</clipPath>
<clipPath id="clip1_1495_2017">
<rect width="141" height="141" fill="white" transform="translate(206 125)"/>
</clipPath>
</defs>
</svg>
