<svg width="336" height="241" viewBox="0 0 336 241" fill="none" xmlns="http://www.w3.org/2000/svg">
<g clip-path="url(#clip0_1296_2010)">
<g clip-path="url(#clip1_1296_2010)">
<path fill-rule="evenodd" clip-rule="evenodd" d="M283.437 340.687C299.682 340.687 315.261 334.234 326.748 322.748C338.234 311.261 344.687 295.682 344.687 279.437C344.687 263.193 338.234 247.614 326.748 236.127C315.261 224.641 299.682 218.187 283.437 218.187C267.193 218.187 251.614 224.641 240.127 236.127C228.641 247.614 222.187 263.193 222.187 279.437C222.187 295.682 228.641 311.261 240.127 322.748C251.614 334.234 267.193 340.687 283.437 340.687ZM360 279.437C360 299.743 351.934 319.217 337.575 333.575C323.217 347.934 303.743 356 283.437 356C263.132 356 243.658 347.934 229.3 333.575C214.941 319.217 206.875 299.743 206.875 279.437C206.875 259.132 214.941 239.658 229.3 225.3C243.658 210.941 263.132 202.875 283.437 202.875C303.743 202.875 323.217 210.941 337.575 225.3C351.934 239.658 360 259.132 360 279.437Z" fill="url(#paint0_linear_1296_2010)" fill-opacity="0.08"/>
<path d="M259.515 293.892C260.235 303.019 267.447 310.124 280.386 310.981V317.719H286.128V310.935C299.527 310.001 307.351 302.835 307.351 292.453C307.351 282.99 301.379 278.121 290.661 275.609L286.128 274.538V256.162C291.886 256.821 295.53 259.96 296.403 264.309H306.478C305.759 255.504 298.21 248.629 286.128 247.878V241.156H280.386V248.047C268.948 249.165 261.169 256.04 261.169 265.779C261.169 274.384 266.957 279.866 276.588 282.102L280.386 283.036V302.513C274.506 301.625 270.601 298.379 269.728 293.892H259.515ZM280.34 273.159C274.69 271.858 271.627 269.178 271.627 265.166C271.627 260.664 274.935 257.296 280.386 256.316V273.159H280.34ZM286.955 284.582C293.83 286.175 296.985 288.747 296.985 293.295C296.985 298.486 293.049 302.039 286.128 302.697V284.399L286.955 284.582Z" fill="url(#paint1_linear_1296_2010)" fill-opacity="0.08"/>
<path d="M130.312 111C126.251 111 122.357 112.613 119.485 115.485C116.613 118.357 115 122.251 115 126.312V248.812C115 252.874 116.613 256.768 119.485 259.64C122.357 262.512 126.251 264.125 130.312 264.125H192.833C193.732 258.847 195.049 253.743 196.784 248.812H160.937C160.937 240.69 157.711 232.901 151.968 227.157C146.224 221.414 138.435 218.187 130.312 218.187V156.937C138.435 156.937 146.224 153.711 151.968 147.968C157.711 142.224 160.937 134.435 160.937 126.312H314.062C314.062 134.435 317.289 142.224 323.032 147.968C328.776 153.711 336.565 156.937 344.687 156.937V210.96C350.506 216.166 355.667 222.107 360 228.631V126.312C360 122.251 358.387 118.357 355.515 115.485C352.643 112.613 348.749 111 344.687 111H130.312Z" fill="url(#paint2_linear_1296_2010)" fill-opacity="0.08"/>
<path d="M268.094 188.833L268.125 187.562C268.122 182.289 266.757 177.105 264.162 172.514C261.568 167.922 257.831 164.079 253.315 161.355C248.799 158.632 243.656 157.121 238.385 156.968C233.113 156.816 227.892 158.027 223.226 160.486C218.56 162.944 214.608 166.565 211.752 170.999C208.897 175.433 207.235 180.529 206.927 185.793C206.619 191.058 207.676 196.313 209.996 201.05C212.315 205.786 215.819 209.843 220.166 212.828C233.402 200.244 250.089 191.89 268.094 188.833Z" fill="url(#paint3_linear_1296_2010)" fill-opacity="0.08"/>
</g>
</g>
<defs>
<linearGradient id="paint0_linear_1296_2010" x1="126.696" y1="111" x2="323.065" y2="273.513" gradientUnits="userSpaceOnUse">
<stop stop-color="white"/>
<stop offset="1" stop-color="white" stop-opacity="0.01"/>
</linearGradient>
<linearGradient id="paint1_linear_1296_2010" x1="126.696" y1="111" x2="323.065" y2="273.513" gradientUnits="userSpaceOnUse">
<stop stop-color="white"/>
<stop offset="1" stop-color="white" stop-opacity="0.01"/>
</linearGradient>
<linearGradient id="paint2_linear_1296_2010" x1="126.696" y1="111" x2="323.065" y2="273.513" gradientUnits="userSpaceOnUse">
<stop stop-color="white"/>
<stop offset="1" stop-color="white" stop-opacity="0.01"/>
</linearGradient>
<linearGradient id="paint3_linear_1296_2010" x1="126.696" y1="111" x2="323.065" y2="273.513" gradientUnits="userSpaceOnUse">
<stop stop-color="white"/>
<stop offset="1" stop-color="white" stop-opacity="0.01"/>
</linearGradient>
<clipPath id="clip0_1296_2010">
<rect width="336" height="241" fill="white"/>
</clipPath>
<clipPath id="clip1_1296_2010">
<rect width="245" height="245" fill="white" transform="translate(115 111)"/>
</clipPath>
</defs>
</svg>
