<svg width="336" height="241" viewBox="0 0 336 241" fill="none" xmlns="http://www.w3.org/2000/svg">
<g clip-path="url(#clip0_1301_2019)">
<g clip-path="url(#clip1_1301_2019)">
<g clip-path="url(#clip2_1301_2019)">
<path d="M327.954 103.386C331.341 102.535 334.877 102.47 338.292 103.197C341.708 103.924 344.914 105.424 347.667 107.582C350.42 109.74 352.648 112.501 354.181 115.654C355.714 118.807 356.512 122.27 356.515 125.779V144.568H364.176C370.272 144.568 376.118 147.002 380.428 151.334C384.738 155.666 387.16 161.542 387.16 167.669V306.275C387.16 312.402 384.738 318.278 380.428 322.61C376.118 326.942 370.272 329.376 364.176 329.376H164.984C158.888 329.376 153.042 326.942 148.732 322.61C144.421 318.278 142 312.402 142 306.275V167.669C141.998 161.722 144.278 156.003 148.365 151.703C152.452 147.403 158.031 144.853 163.942 144.583L327.954 103.386ZM227.224 144.568H341.192V125.779C341.19 124.611 340.923 123.458 340.411 122.409C339.9 121.36 339.158 120.441 338.241 119.723C337.324 119.005 336.256 118.506 335.119 118.263C333.982 118.021 332.805 118.042 331.677 118.325L227.224 144.568ZM164.984 159.968C162.952 159.968 161.003 160.78 159.566 162.224C158.13 163.668 157.322 165.627 157.322 167.669V306.275C157.322 308.317 158.13 310.276 159.566 311.72C161.003 313.164 162.952 313.976 164.984 313.976H364.176C366.208 313.976 368.157 313.164 369.593 311.72C371.03 310.276 371.837 308.317 371.837 306.275V167.669C371.837 165.627 371.03 163.668 369.593 162.224C368.157 160.78 366.208 159.968 364.176 159.968H164.984Z" fill="url(#paint0_linear_1301_2019)" fill-opacity="0.08"/>
</g>
</g>
</g>
<defs>
<linearGradient id="paint0_linear_1301_2019" x1="142" y1="102.696" x2="387.16" y2="284.41" gradientUnits="userSpaceOnUse">
<stop stop-color="white"/>
<stop offset="1" stop-color="white" stop-opacity="0.1"/>
</linearGradient>
<clipPath id="clip0_1301_2019">
<rect width="336" height="241" fill="white"/>
</clipPath>
<clipPath id="clip1_1301_2019">
<rect width="194" height="194" fill="white" transform="translate(142 99)"/>
</clipPath>
<clipPath id="clip2_1301_2019">
<rect width="239" height="239" fill="white" transform="translate(142 99)"/>
</clipPath>
</defs>
</svg>
